<svg width="32" height="32" viewBox="0 0 32 32" fill="none" xmlns="http://www.w3.org/2000/svg">
  <defs>
    <linearGradient id="heartGradient" x1="0%" y1="0%" x2="100%" y2="100%">
      <stop offset="0%" style="stop-color:#FF69B4;stop-opacity:1" />
      <stop offset="100%" style="stop-color:#FF1493;stop-opacity:1" />
    </linearGradient>
  </defs>
  <path d="M16 28.5C16 28.5 2 19.5 2 10.5C2 6.5 5 3.5 9 3.5C11.5 3.5 14 5 16 7.5C18 5 20.5 3.5 23 3.5C27 3.5 30 6.5 30 10.5C30 19.5 16 28.5 16 28.5Z" fill="url(#heartGradient)" stroke="#FF1493" stroke-width="1"/>
  <path d="M8 10.5C8 9.5 8.5 9 9.5 9C10.5 9 11 9.5 11 10.5C11 11.5 10.5 12 9.5 12C8.5 12 8 11.5 8 10.5Z" fill="white" opacity="0.8"/>
  <path d="M21 10.5C21 9.5 21.5 9 22.5 9C23.5 9 24 9.5 24 10.5C24 11.5 23.5 12 22.5 12C21.5 12 21 11.5 21 10.5Z" fill="white" opacity="0.8"/>
</svg>
